<svg style="display: none;" xmlns="http://www.w3.org/2000/svg">

    <symbol id="messages" viewBox="0 0 24 24">
        <g id="Symbols" stroke="none" stroke-width="1" fill="none" fill-rule="evenodd">
            <g id="Group-3" fill-rule="nonzero" stroke="#FFFFFF" stroke-width="2">
                <g transform="translate(2.000000, 4.000000)" id="chat-speech-bubbles">
                    <g>
                        <path d="M10,0 C4.47692308,0 0,3.41802174 0,7.63633097 C0,9.70424939 1.07846154,11.5843141 2.82923077,12.9588537 C2.72769231,14.360884 2.38769231,16.076004 1.40307692,17 C3.36307692,17 5.36615385,15.7812416 6.63230769,14.8282275 C7.68461538,15.1153535 8.81692308,15.2726619 10,15.2726619 C15.5230769,15.2726619 20,11.8561675 20,7.63633097 C20,3.41802174 15.5230769,0 10,0 Z" id="Shape"></path>
                    </g>
                </g>
            </g>
        </g>
    </symbol>

    <symbol id="messages_fill" viewBox="0 0 24 24">
        <g id="Symbols" stroke="none" stroke-width="1" fill="none" fill-rule="evenodd">
            <g id="icon-/-Kv-Copy-5" fill="#97A4C6" fill-rule="nonzero">
                <g id="speech-bubbles-comment-option" transform="translate(3.000000, 4.000000)">
                    <path d="M14.1528281,12.8252344 C15.6024844,12.2140781 16.7468906,11.3821875 17.5854844,10.3292344 C18.4239844,9.27651563 18.8432813,8.13009375 18.8432813,6.88992187 C18.8432813,5.64970312 18.4239844,4.5031875 17.5851563,3.45042187 C16.7466563,2.39765625 15.6024375,1.56567187 14.1525938,0.954375 C12.70275,0.343171875 11.1258281,0.0376875 9.42159375,0.0376875 C7.7175,0.0376875 6.14057813,0.343359375 4.69064063,0.954375 C3.24084375,1.565625 2.09657813,2.39760937 1.25803125,3.45042187 C0.419390625,4.503375 0,5.64970312 0,6.88996875 C0,7.95159375 0.317203125,8.95129687 0.950625,9.88809375 C1.584,10.8247031 2.45395312,11.6144531 3.56020312,12.2567344 C3.47104687,12.4710469 3.37959375,12.6670781 3.28589062,12.8457656 C3.19214062,13.0241719 3.08071875,13.1957812 2.95125,13.3609687 C2.821875,13.5262031 2.72160937,13.6554844 2.65017187,13.7488594 C2.57878125,13.8425156 2.4628125,13.9744219 2.302125,14.1436406 C2.14148437,14.3131875 2.03882812,14.4247031 1.99429687,14.4780937 C1.99429687,14.4691406 1.9764375,14.4893437 1.94071875,14.5384219 C1.90495312,14.5875 1.88489062,14.6096719 1.88048437,14.6055 C1.87598437,14.6006719 1.858125,14.6229844 1.82690625,14.6720625 C1.7956875,14.7211875 1.78003125,14.7457031 1.78003125,14.7457031 L1.74651562,14.8124062 C1.73329687,14.8393594 1.72420312,14.8657031 1.71979687,14.8926562 C1.71529687,14.9192344 1.71304687,14.9484375 1.71304687,14.9795625 C1.71304687,15.0106875 1.71745312,15.0395625 1.72654687,15.0664687 C1.74440625,15.1822969 1.7956875,15.2758125 1.8804375,15.3475312 C1.96514062,15.4187812 2.0565,15.4543594 2.15475,15.4543594 L2.19492187,15.4543594 C2.6409375,15.3919219 3.02465625,15.3205781 3.34579687,15.2401875 C4.71979687,14.8834687 5.9600625,14.3122031 7.06635937,13.5271406 C7.86928125,13.6699219 8.6544375,13.7412656 9.4216875,13.7412656 C11.1259219,13.741875 12.7030313,13.4364844 14.1528281,12.8252344 Z" id="Shape"></path>
                </g>
            </g>
        </g>
    </symbol>

    <symbol id="warning" viewBox="0 0 24 24">
        <g id="Symbols" stroke="none" stroke-width="1" fill="none" fill-rule="evenodd">
            <g id="icon-/-Kv-Copy-6" fill="#97A4C6" fill-rule="nonzero">
                <g id="warning" transform="translate(2.500000, 3.213701)">
                    <path d="M18.8105828,14.9207505 L10.565593,0.637723926 C10.0876789,-0.189883436 8.89095092,-0.189883436 8.41303681,0.637723926 L0.168047035,14.9207505 C-0.309867076,15.7483579 0.288496933,16.7857812 1.24432515,16.7857812 L17.7343047,16.7857812 C18.6901329,16.7857812 19.2884969,15.7483579 18.8105828,14.9207505 Z M9.50097137,5.03608793 C10.0293967,5.03608793 10.4567996,5.47514724 10.4412577,6.0035726 L10.2858384,11.4277035 C10.274182,11.8551063 9.92448875,12.1931431 9.49708589,12.1931431 C9.06968303,12.1931431 8.71998978,11.8512209 8.70833333,11.4277035 L8.55679959,6.0035726 C8.54514315,5.47514724 8.96866053,5.03608793 9.50097137,5.03608793 Z M9.48931493,14.8469264 C8.94923313,14.8469264 8.51017382,14.4078671 8.51017382,13.8677853 C8.51017382,13.3277035 8.94923313,12.8886442 9.48931493,12.8886442 C10.0293967,12.8886442 10.468456,13.3277035 10.468456,13.8677853 C10.468456,14.4078671 10.0293967,14.8469264 9.48931493,14.8469264 Z" id="Shape"></path>
                </g>
            </g>
        </g>
    </symbol>

    <symbol id="calendar" viewBox="0 0 24 24">
        <g id="Symbols" stroke="none" stroke-width="1" fill="none" fill-rule="evenodd">
            <g id="icon-/-Kv-Copy-7" fill="#97A4C6" fill-rule="nonzero">
                <g id="calendar" transform="translate(3.000000, 3.000000)">
                    <path d="M6.1475272,9.57800628 C6.1475272,9.3605272 5.97112552,9.18433891 5.75346862,9.18433891 L4.37835356,9.18433891 C4.16094561,9.18433891 3.98450837,9.3605272 3.98450837,9.57800628 L3.98450837,10.9529435 C3.98450837,11.1707071 4.16094561,11.3469665 4.37835356,11.3469665 L5.75346862,11.3469665 C5.97112552,11.3469665 6.1475272,11.1707071 6.1475272,10.9529435 L6.1475272,9.57800628 Z" id="Shape"></path>
                    <path d="M9.58412343,9.57800628 C9.58412343,9.3605272 9.40768619,9.18433891 9.19045607,9.18433891 L7.81516318,9.18433891 C7.59775523,9.18433891 7.42131799,9.3605272 7.42131799,9.57800628 L7.42131799,10.9529435 C7.42131799,11.1707071 7.59775523,11.3469665 7.81516318,11.3469665 L9.19045607,11.3469665 C9.40768619,11.3469665 9.58412343,11.1707071 9.58412343,10.9529435 L9.58412343,9.57800628 Z" id="Shape"></path>
                    <path d="M13.0208975,9.57800628 C13.0208975,9.3605272 12.8444603,9.18433891 12.6270523,9.18433891 L11.2519372,9.18433891 C11.0342803,9.18433891 10.8578787,9.3605272 10.8578787,9.57800628 L10.8578787,10.9529435 C10.8578787,11.1707071 11.0342803,11.3469665 11.2519372,11.3469665 L12.6270523,11.3469665 C12.8444603,11.3469665 13.0208975,11.1707071 13.0208975,10.9529435 L13.0208975,9.57800628 Z" id="Shape"></path>
                    <path d="M6.1475272,13.0149582 C6.1475272,12.7971234 5.97112552,12.6210774 5.75346862,12.6210774 L4.37835356,12.6210774 C4.16094561,12.6210774 3.98450837,12.7971234 3.98450837,13.0149582 L3.98450837,14.3896464 C3.98450837,14.6072678 4.16094561,14.7834916 4.37835356,14.7834916 L5.75346862,14.7834916 C5.97112552,14.7834916 6.1475272,14.6072322 6.1475272,14.3896464 L6.1475272,13.0149582 Z" id="Shape"></path>
                    <path d="M9.58412343,13.0149582 C9.58412343,12.7971234 9.40768619,12.6210774 9.19045607,12.6210774 L7.81516318,12.6210774 C7.59775523,12.6210774 7.42131799,12.7971234 7.42131799,13.0149582 L7.42131799,14.3896464 C7.42131799,14.6072678 7.59775523,14.7834916 7.81516318,14.7834916 L9.19045607,14.7834916 C9.40768619,14.7834916 9.58412343,14.6072322 9.58412343,14.3896464 L9.58412343,13.0149582 Z" id="Shape"></path>
                    <path d="M13.0208975,13.0149582 C13.0208975,12.7971234 12.8444603,12.6210774 12.6272301,12.6210774 L11.2519372,12.6210774 C11.0342803,12.6210774 10.8578787,12.7971234 10.8578787,13.0149582 L10.8578787,14.3896464 C10.8578787,14.6072678 11.0342803,14.7834916 11.2519372,14.7834916 L12.6272301,14.7834916 C12.8444603,14.7834916 13.0208975,14.6072322 13.0208975,14.3896464 L13.0208975,13.0149582 Z" id="Shape"></path>
                    <path d="M15.4797448,1.93309205 L15.4797448,4.03319665 C15.4797448,4.98242259 14.7096946,5.74735146 13.7606109,5.74735146 L12.6761318,5.74735146 C11.726977,5.74735146 10.9467197,4.98242259 10.9467197,4.03319665 L10.9467197,1.9255523 L6.05868619,1.9255523 L6.05868619,4.03319665 C6.05868619,4.98242259 5.27846444,5.74735146 4.32945188,5.74735146 L3.24475941,5.74735146 C2.2957113,5.74735146 1.52569665,4.98242259 1.52569665,4.03319665 L1.52569665,1.93309205 C0.696217573,1.95809414 0.0146171548,2.64446025 0.0146171548,3.48809414 L0.0146171548,15.7957029 C0.0146171548,16.6551987 0.711261506,17.36109 1.57075732,17.36109 L15.4346485,17.36109 C16.292864,17.36109 16.9907887,16.6537406 16.9907887,15.7957029 L16.9907887,3.48809414 C16.9907887,2.64446025 16.3092238,1.95809414 15.4797448,1.93309205 Z M14.9760397,15.0292803 C14.9760397,15.4007197 14.6748766,15.7020607 14.303295,15.7020607 L2.67248536,15.7020607 C2.30090377,15.7020607 1.99974059,15.4007197 1.99974059,15.0292803 L1.99974059,8.67195607 C1.99974059,8.30037448 2.3008682,7.99903347 2.67248536,7.99903347 L14.3032594,7.99903347 C14.674841,7.99903347 14.9760042,8.30037448 14.9760042,8.67195607 L14.9760397,15.0292803 Z" id="Shape"></path>
                    <path d="M3.24095397,4.6214749 L4.31366109,4.6214749 C4.63925732,4.6214749 4.90325523,4.3578682 4.90325523,4.03227197 L4.90325523,0.589416318 C4.90325523,0.263784519 4.63925732,0 4.31366109,0 L3.24095397,0 C2.91532218,0 2.65135983,0.263784519 2.65135983,0.589416318 L2.65135983,4.03227197 C2.65135983,4.3578682 2.91532218,4.6214749 3.24095397,4.6214749 Z" id="Shape"></path>
                    <path d="M12.6623326,4.6214749 L13.7350397,4.6214749 C14.0604226,4.6214749 14.3244205,4.3578682 14.3244205,4.03227197 L14.3244205,0.589416318 C14.3244561,0.263784519 14.0604582,0 13.7350397,0 L12.6623326,0 C12.336772,0 12.0727741,0.263784519 12.0727741,0.589416318 L12.0727741,4.03227197 C12.0727741,4.3578682 12.336772,4.6214749 12.6623326,4.6214749 Z" id="Shape"></path>
                </g>
            </g>
        </g>
    </symbol>

    <symbol id="timer" viewBox="0 0 24 24">
        <g id="Symbols" stroke="none" stroke-width="1" fill="none" fill-rule="evenodd">
            <g id="icon-/-Kv-Copy-8" fill="#97A4C6" fill-rule="nonzero">
                <g id="hourglass" transform="translate(5.000000, 3.000000)">
                    <path d="M11.5670472,3.17007902 L12.5652581,3.17007902 C12.8053661,3.17007902 13,2.97459292 13,2.73353123 L13,0.43654778 C13,0.195486096 12.8053661,0 12.5652581,0 L0.434741897,0 C0.194633947,0 0,0.195486096 0,0.43654778 L0,2.73353123 C0,2.97459292 0.194633947,3.17007902 0.434741897,3.17007902 L1.43295277,3.17007902 C1.83591503,5.87842144 3.09371029,8.06923648 4.73438273,9 C3.09362334,9.9305889 1.83587156,12.1214912 1.43295277,14.829921 L0.434741897,14.829921 C0.194633947,14.829921 0,15.0254507 0,15.2664688 L0,17.5634522 C0,17.8044702 0.194633947,18 0.434741897,18 L12.5652146,18 C12.8053226,18 12.9999565,17.8044702 12.9999565,17.5634522 L12.9999565,15.2664688 C12.9999565,15.0254507 12.8053226,14.829921 12.5652146,14.829921 L11.5670038,14.829921 C11.163998,12.1215786 9.90624624,9.93067621 8.26553032,9.00004365 C9.90628971,8.06936744 11.1641284,5.87850875 11.5670472,3.17007902 Z M7.26379804,10.6038329 C8.85573592,12.6383202 9.44494161,13.6233029 9.65892157,14.0913695 C9.72065492,14.2265246 9.70961248,14.3839438 9.62970692,14.509102 C9.54980136,14.6342166 9.41190123,14.7100013 9.26382814,14.7100013 L3.73630229,14.7100013 C3.5882292,14.7100013 3.45028559,14.6343476 3.37038003,14.509102 C3.29047447,14.3839001 3.27943203,14.226481 3.34120885,14.0913695 C3.55510186,13.6233466 4.14426408,12.6384075 5.73633238,10.6036583 L5.78280629,10.5443314 L5.78280629,7.87706815 L5.72433351,7.81420526 C4.84050323,6.86318593 4.16408831,6.10389837 3.71382613,5.55747152 C3.58322966,5.39891736 3.58057774,5.17029729 3.7074789,5.00877461 C3.83438006,4.84725193 4.05644622,4.7966997 4.24034204,4.88732702 C4.8368514,5.18134195 5.71307369,5.53188982 6.50004347,5.53188982 C7.29366481,5.53188982 8.16475715,5.18387393 8.75574528,4.89195442 C8.93972805,4.80093421 9.16188116,4.85157375 9.28891274,5.01314009 C9.41594433,5.17475008 9.41320545,5.40345746 9.28256551,5.56201161 C8.83195554,6.10848212 8.15680137,6.86615445 7.27588386,7.8140743 L7.2173676,7.87693718 L7.2173676,10.544506 L7.26379804,10.6038329 Z" id="Shape"></path>
                </g>
            </g>
        </g>
    </symbol>

    <symbol id="add" viewBox="0 0 24 24">
        <g id="Symbols" stroke="none" stroke-width="1" fill="none" fill-rule="evenodd">
            <g id="Group" fill-rule="nonzero">
                <g transform="translate(1.000000, 1.000000)">
                    <rect id="Rectangle-3" fill="#FFFFFF" x="10" y="6" width="2" height="9"></rect>
                    <rect id="Rectangle-3-Copy" fill="#FFFFFF" transform="translate(11.000000, 10.500000) rotate(-90.000000) translate(-11.000000, -10.500000) " x="10" y="6" width="2" height="9"></rect>
                    <circle id="Oval-2" stroke="#FFFFFF" stroke-width="2" cx="11" cy="11" r="11"></circle>
                </g>
            </g>
        </g>
    </symbol>

    <symbol id="search" viewBox="0 0 24 24">
        <g id="Symbols" stroke="none" stroke-width="1" fill="none" fill-rule="evenodd">
            <g id="search-(1)" fill="#FFFFFF" fill-rule="nonzero">
                <g transform="translate(2.000000, 2.000000)" id="Shape">
                    <path d="M20.3169474,19.1162632 L15.3218947,13.9211579 C16.6062105,12.3944211 17.3098947,10.4734737 17.3098947,8.47368421 C17.3098947,3.80136842 13.5085263,0 8.83621053,0 C4.16389474,0 0.362526316,3.80136842 0.362526316,8.47368421 C0.362526316,13.146 4.16389474,16.9473684 8.83621053,16.9473684 C10.5902632,16.9473684 12.2617895,16.4183158 13.6908947,15.414 L18.7238947,20.6485263 C18.9342632,20.867 19.2172105,20.9874737 19.5204211,20.9874737 C19.8074211,20.9874737 20.0796842,20.8780526 20.2863684,20.6791053 C20.7255263,20.2565263 20.7395263,19.5557895 20.3169474,19.1162632 Z M8.83621053,2.21052632 C12.2897895,2.21052632 15.0993684,5.02010526 15.0993684,8.47368421 C15.0993684,11.9272632 12.2897895,14.7368421 8.83621053,14.7368421 C5.38263158,14.7368421 2.57305263,11.9272632 2.57305263,8.47368421 C2.57305263,5.02010526 5.38263158,2.21052632 8.83621053,2.21052632 Z"></path>
                </g>
            </g>
        </g>
    </symbol>

    <symbol id="triangle" viewBox="0 0 10 10">
        <g id="Symbols" stroke="none" stroke-width="1" fill="none" fill-rule="evenodd" opacity="0.560000002">
            <g id="Leftsidebar" transform="translate(-160.000000, -107.000000)" fill="#A8B4F4" fill-rule="nonzero">
                <polygon id="Triangle" transform="translate(165.000000, 112.000000) rotate(90.000000) translate(-165.000000, -112.000000) " points="170 112 160 117 160 107"></polygon>
            </g>
        </g>
    </symbol>

    <symbol id="flats" viewBox="0 0 24 24">
        <g id="Symbols" stroke="none" stroke-width="1" fill="none" fill-rule="evenodd">
            <g id="icon-/-Kv-Copy-10" fill-rule="nonzero">
                <path d="M6,5 L6,18 L19,18 L19,5 L6,5 Z M17,21 L17,18 L13,18 L13,21 L5,21 C3.8954305,21 3,20.1045695 3,19 L3,4 C3,2.8954305 3.8954305,2 5,2 L20,2 C21.1045695,2 22,2.8954305 22,4 L22,19 C22,20.1045695 21.1045695,21 20,21 L17,21 Z" id="Combined-Shape" fill="#D02A4A"></path>
                <path d="M14.4669525,12.2933426 L11.3333333,14.5" id="Line-4-Copy" stroke="#D02A4A" stroke-width="2" stroke-linecap="square"></path>
                <rect id="Rectangle-4" fill="#D02A4A" x="10" y="3" width="2" height="7"></rect>
                <rect id="Rectangle-4-Copy" fill="#D02A4A" x="10" y="14" width="2" height="6"></rect>
            </g>
        </g>
    </symbol>

    <symbol id="key" viewBox="0 0 24 24">
        <g id="Symbols" stroke="none" stroke-width="1" fill="none" fill-rule="evenodd">
            <g id="icon-/-Kv-Copy-4" fill="#97A4C6" fill-rule="nonzero">
                <g id="key-silhouette-security-tool-interface-symbol-of-password" transform="translate(3.000000, 3.000000)">
                    <path d="M12.3333398,0 C9.20001782,0 6.66667958,2.53333333 6.66667958,5.66664924 C6.66667958,6.3333159 6.80001317,6.99998257 6.99999613,7.66664924 L0,14.6666667 L0,18 L3.33333979,18 L3.33333979,16 L5.33334366,16 L5.33334366,14 L7.33334753,14 L10.3333359,11.0000174 C10.9333545,11.2 11.6000225,11.3333333 12.3333398,11.3333333 C15.4666966,11.3333333 18,8.8 18,5.6666841 C18,2.53336819 15.4666966,0 12.3333398,0 Z M14.0000271,6 C12.8666742,6 12.0000232,5.13335076 12.0000232,4 C12.0000232,2.86664924 12.8666742,2 14.0000271,2 C15.1333801,2 16.000031,2.86664924 16.000031,4 C16.000031,5.13335076 15.1333801,6 14.0000271,6 Z" id="Shape"></path>
                </g>
            </g>
        </g>
    </symbol>

    <symbol id="houses" viewBox="0 0 24 24">
        <g id="Symbols" stroke="none" stroke-width="1" fill="none" fill-rule="evenodd">
            <g id="icon-/-Kv-Copy-11" fill="#D02A4A" fill-rule="nonzero">
                <g id="home-icon-silhouette" transform="translate(2.000000, 2.000000)">
                    <path d="M20.4056556,8.73540008 L17.2602849,5.59002933 L17.2602849,1.95659824 C17.2602849,1.29962296 16.7279011,0.767197319 16.0699623,0.767197319 C15.4135316,0.767197319 14.8811479,1.29962296 14.8811479,1.95659824 L14.8811479,3.21093423 L12.5391705,0.868873062 C11.3812736,-0.288395475 9.36807708,-0.28634269 8.21281944,0.870967742 L0.348219522,8.73540008 C-0.116045245,9.20058651 -0.116045245,9.95328865 0.348219522,10.4177629 C0.812693758,10.8828236 1.56686217,10.8828236 2.03116883,10.4177629 L9.89501466,2.55312107 C10.151194,2.29828236 10.6027231,2.29828236 10.8575618,2.55236699 L18.7227482,10.4177629 C18.9559698,10.6503142 19.2600335,10.7659824 19.5640134,10.7659824 C19.8686217,10.7659824 20.1731881,10.6501885 20.4056975,10.4177629 C20.8701299,9.95333054 20.8701299,9.2006284 20.4056556,8.73540008 Z" id="Shape"></path>
                    <path d="M10.790155,4.81089233 C10.5616674,4.58253037 10.1917051,4.58253037 9.96388773,4.81089233 L3.04616674,11.7265605 C2.93695015,11.8357352 2.87503142,11.9847926 2.87503142,12.1403435 L2.87503142,17.1843737 C2.87503142,18.3679933 3.83472979,19.3276498 5.0183075,19.3276498 L8.44327608,19.3276498 L8.44327608,14.0235023 L12.3100126,14.0235023 L12.3100126,19.3276498 L15.735023,19.3276498 C16.9185589,19.3276498 17.8782572,18.3679933 17.8782572,17.1844156 L17.8782572,12.1403435 C17.8782572,11.9847926 17.8168831,11.8357352 17.7071219,11.7265605 L10.790155,4.81089233 Z" id="Shape"></path>
                </g>
            </g>
        </g>
    </symbol>

    <symbol id="lands" viewBox="0 0 24 24">
        <g id="Symbols" stroke="none" stroke-width="1" fill="none" fill-rule="evenodd">
            <g id="icon-/-Kv-Copy-9" fill="#D02A4A" fill-rule="nonzero">
                <g id="tree-silhouette" transform="translate(4.000000, 2.000000)">
                    <path d="M16.468471,6.07023938 C16.468471,4.5144556 15.3534286,3.23482239 13.9233282,3.07765251 C13.5219575,1.93159459 12.4831853,1.11315058 11.2608263,1.11315058 C10.7257529,1.11315058 10.2270753,1.27264865 9.79994208,1.54480309 C9.31416216,0.623710425 8.38556178,0 7.31823745,0 C5.90320077,0 4.73292471,1.09654054 4.51576448,2.53004247 C4.40027606,2.51510039 4.28354054,2.50477992 4.16427799,2.50477992 C2.59483012,2.50477992 1.32225869,3.85189575 1.32225869,5.51397683 C1.32225869,5.59539382 1.32790347,5.67514286 1.33387645,5.75489189 C0.538027027,6.28822008 0.00827027027,7.22592278 0.00827027027,8.29688803 C0.00827027027,9.24359073 0.421915058,10.0869151 1.06742278,10.6385212 C1.06460039,10.692695 1.05957915,10.7464865 1.05957915,10.8013552 C1.05957915,12.4631236 2.33185521,13.8105521 3.90159846,13.8105521 C4.37201931,13.8105521 4.81451158,13.68761 5.20524903,13.4736255 C5.74659073,13.885332 6.52176448,14.4003822 6.89707722,14.2976988 C6.89707722,14.2976988 7.03672008,16.587834 7.00659266,17.1693591 C6.94916023,18.2758726 6.63564479,19.5076564 6.41503861,20.5045367 L9.83200579,20.5045367 C9.83200579,20.5045367 9.32830695,18.2821969 9.30631853,17.5402008 C9.28436293,16.7981699 9.52538224,15.4318031 9.52538224,15.4318031 L10.710722,14.1335792 C11.1669981,14.4638687 11.7180869,14.6516178 12.3124961,14.6516178 C13.7818147,14.6516178 14.99039,13.4679961 15.1388282,11.9537375 C16.2211834,11.5287568 16.9941583,10.4258919 16.9941583,9.13162934 C16.9941583,8.36735907 16.7230116,7.67220463 16.2798629,7.14123938 C16.399749,6.80823938 16.468471,6.44806564 16.468471,6.07023938 Z M5.86175097,12.9768185 C6.08957722,12.7465367 6.28071236,12.4774054 6.42662355,12.178668 L6.98460425,13.4164286 C6.98430888,13.4164633 6.68083591,13.5583436 5.86175097,12.9768185 Z M7.94809073,13.7410888 C7.65935328,13.796583 7.16760039,12.8551969 6.81860811,12.0899189 C7.20557143,12.2989344 7.64241892,12.4192355 8.1068668,12.4192355 C8.22612934,12.4192355 8.34319305,12.4089498 8.45868147,12.3936602 C8.36892278,13.0060772 8.21077027,13.690251 7.94809073,13.7410888 Z M9.17484749,14.3435328 C8.50699035,14.5398996 8.90681853,13.0751583 9.09824903,12.2271776 C9.23667761,12.1726911 9.37067568,12.1085792 9.49807722,12.032444 C9.57497104,12.6504903 9.82852703,13.2080734 10.2042008,13.6490039 C9.87873938,13.9551081 9.50401737,14.2468263 9.17484749,14.3435328 Z" id="Shape"></path>
                </g>
            </g>
        </g>
    </symbol>

    <symbol id="rouble" viewBox="0 0 24 24">
        <g id="Symbols" stroke="none" stroke-width="1" fill="none" fill-rule="evenodd" font-family="Roboto-Bold, Roboto" font-size="21" font-weight="bold">
            <g id="icon-/-Kv-Copy-2" fill="#97A4C6">
                <text id="₽">
                    <tspan x="5" y="19">₽</tspan>
                </text>
            </g>
        </g>
    </symbol>

    <symbol id="arrow_right" viewBox="0 0 10 16">
        <g id="Symbols" stroke="none" stroke-width="1" fill="none" fill-rule="evenodd">
            <g id="Home-Copy-14" transform="translate(-187.000000, -14.000000)" fill-rule="nonzero" stroke="#394E87" stroke-width="2">
                <polyline id="Path-4" points="188 15 195 22.1738618 188 29.3477235"></polyline>
            </g>
        </g>
    </symbol>

</svg>